<svg viewBox="0 0 100000 100000" xmlns="http://www.w3.org/2000/svg">
    <rect width="100%" height="100%" fill="white"/>
    <polygon points="97819,50153 97819,51361 97695,51361 97695,52560 97478,52560 97478,53816 98081,53816 98081,54975 97418,54975 97418,56200 97473,56200 97473,57459 97673,57459 97673,58694 97628,58694 97628,59810 96976,59810 96976,60944 96485,60944 96485,62061 95974,62061 95974,63248 95748,63248 95748,64662 96214,64662 96214,65764 95642,65764 95642,66755 94801,66755 94801,67896 94390,67896 94390,69110 94141,69110 94141,70168 93526,70168 93526,71446 93369,71446 93369,72267 92298,72267 92298,73226 91531,73226 91531,74355 91073,74355 91073,75528 90666,75528 90666,76633 90131,76633 90131,77691 89515,77691 89515,78771 88919,78771 88919,79538 87908,79538 87908,80478 87135,80478 87135,81550 86514,81550 86514,81966 85154,81966 85154,83369 84879,83369 84879,84065 83848,84065 83848,84550 82633,84550 82633,85553 81914,85553 81914,86608 81224,86608 81224,87400 80297,87400 80297,87882 79129,87882 79129,89069 78496,89069 78496,89747 77476,89747 77476,89792 76042,89792 76042,90412 75009,90412 75009,91317 74144,91317 74144,91746 72996,91746 72996,92544 72050,92544 72050,93038 70940,93038 70940,93570 69850,93570 69850,93848 68650,93848 68650,94995 67806,94995 67806,95319 66619,95319 66619,95177 65280,95177 65280,95556 64133,95556 64133,96445 63128,96445 63128,96494 61879,96494 61879,96939 60734,96939 60734,97073 59516,97073 59516,97437 58345,97437 58345,97884 57178,97884 57178,97310 55871,97310 55871,97628 54689,97628 54689,97534 53466,97534 53466,97639 52263,97639 52263,98179 51066,98179 51066,98009 49846,98009 49846,97587 48641,97587 48641,97442 47441,97442 47441,97554 46225,97554 46225,97865 44977,97865 44977,97399 43808,97399 43808,97907 42503,97907 42503,96814 41454,96814 41454,97405 40099,97405 40099,96388 39078,96388 39078,96382 37832,96382 37832,96415 36557,96415 36557,95283 35632,95283 35632,95832 34169,95832 34169,94609 33315,94609 33315,94140 32203,94140 32203,93620 31115,93620 31115,93612 29791,93612 29791,92816 28827,92816 28827,92854 27439,92854 27439,92120 26444,92120 26444,91350 25479,91350 25479,91029 24243,91029 24243,90150 23354,90150 23354,88965 22693,88965 22693,88616 21452,88616 21452,87622 20684,87622 20684,87088 19560,87088 19560,86108 18800,86108 18800,85166 18022,85166 18022,84526 16968,84526 16968,83798 15983,83798 15983,83275 14768,83275 14768,82119 14219,82119 14219,81229 13385,81229 13385,80353 12529,80353 12529,78959 12338,78959 12338,78258 11257,78258 11257,77432 10316,77432 10316,76306 9804,76306 9804,75257 9186,75257 9186,74070 8808,74070 8808,73346 7617,73346 7617,72112 7336,72112 7336,71130 6571,71130 6571,69839 6453,69839 6453,68884 5601,68884 5601,67730 5195,67730 5195,66371 5358,66371 5358,65433 4369,65433 4369,64085 4595,64085 4595,62951 4183,62951 4183,61942 3257,61942 3257,60761 2939,60761 2939,59474 3133,59474 3133,58235 3186,58235 3186,57057 2924,57057 2924,55964 1943,55964 1943,54727 1983,54727 1983,53526 1643,53526 1643,52258 2454,52258 2454,51063 1936,51063 1936,50143 94800,50143 94800,48628 1967,48628 1967,47420 2174,47420 2174,46235 2572,46235 2572,45009 2439,45009 2439,43789 2455,43789 2455,42617 2817,42617 2817,41320 2452,41320 2452,40171 2941,40171 2941,39071 3579,39071 3579,37926 3978,37926 3978,36593 3706,36593 3706,35458 4168,35458 4168,34184 4208,34184 4208,33283 5303,33283 5303,32050 5479,32050 5479,31124 6400,31124 6400,29843 6498,29843 6498,28596 6717,28596 6717,27511 7282,27511 7282,26340 7694,26340 7694,25288 8327,25288 8327,24719 9728,24719 9728,23535 10122,23535 10122,22481 10731,22481 10731,21219 11068,21219 11068,20260 11832,20260 11832,19402 12719,19402 12719,18681 13753,18681 13753,17399 14147,17399 14147,16842 15341,16842 15341,15813 16031,15813 16031,15227 17157,15227 17157,14012 17695,14012 17695,13399 18782,13399 18782,12438 19572,12438 19572,12015 20791,12015 20791,11392 21840,11392 21840,10247 22519,10247 22519,10010 23828,10010 23828,9084 24678,9084 24678,8491 25744,8491 25744,7863 26788,7863 26788,6987 27707,6987 27707,6573 28870,6573 28870,5960 29935,5960 29935,5408 31033,5408 31033,4964 32177,4964 32177,4548 33332,4548 33332,4435 34588,4435 34588,4188 35787,4188 35787,4063 37014,4063 37014,3490 38116,3490 38116,3175 39292,3175 39292,3040 40506,3040 40506,2347 41616,2347 41616,2950 42946,2950 42946,2088 44053,2088 44053,2542 45327,2542 45327,2293 46520,2293 46520,2372 47737,2372 47737,1604 48928,1604 48928,1823 50154,1823 50154,2178 51365,2178 51365,1738 52602,1738 52602,1788 53826,1788 53826,2273 55007,2273 55007,2068 56260,2068 56260,2614 57414,2614 57414,3231 58537,3231 58537,2920 59832,2920 59832,3681 60904,3681 60904,3946 62081,3946 62081,4131 63283,4131 63283,4652 64387,4652 64387,4844 65596,4844 65596,5340 66703,5340 66703,5487 67945,5487 67945,5728 69166,5728 69166,6794 70019,6794 70019,7116 71206,7116 71206,7226 72517,7226 72517,7707 73651,7707 73651,8446 74640,8446 74640,9118 75664,9118 75664,10000 76545,10000 76545,10362 77777,10362 77777,11195 78686,11195 78686,12344 79340,12344 79340,12818 80515,12818 80515,13383 81638,13383 81638,14591 82196,14591 82196,14977 83505,14977 83505,16181 84036,16181 84036,16826 85122,16826 85122,17980 85670,17980 85670,19070 86263,19070 86263,19578 87553,19578 87553,20767 88016,20767 88016,21839 88608,21839 88608,22815 89324,22815 89324,23773 90072,23773 90072,24865 90613,24865 90613,25784 91439,25784 91439,26819 92080,26819 92080,27995 92456,27995 92456,28855 93456,28855 93456,30075 93733,30075 93733,31143 94332,31143 94332,32193 94995,32193 94995,33560 94829,33560 94829,34660 95352,34660 95352,35816 95717,35816 95717,36836 96569,36836 96569,38156 96354,38156 96354,39394 96376,39394 96376,40441 97281,40441 97281,41617 97650,41617 97650,42900 97353,42900 97353,44047 97963,44047 97963,45312 97609,45312 97609,46476 98312,46476 98312,47743 97494,47743 97494,48929 98347,48929 98347,50153" fill="green"/>
    <circle r="100" cx="97819" cy="50153" fill="red" />
<circle r="100" cx="97819" cy="51361" fill="red" />
<circle r="100" cx="97695" cy="51361" fill="red" />
<circle r="100" cx="97695" cy="52560" fill="red" />
<circle r="100" cx="97478" cy="52560" fill="red" />
<circle r="100" cx="97478" cy="53816" fill="red" />
<circle r="100" cx="98081" cy="53816" fill="red" />
<circle r="100" cx="98081" cy="54975" fill="red" />
<circle r="100" cx="97418" cy="54975" fill="red" />
<circle r="100" cx="97418" cy="56200" fill="red" />
<circle r="100" cx="97473" cy="56200" fill="red" />
<circle r="100" cx="97473" cy="57459" fill="red" />
<circle r="100" cx="97673" cy="57459" fill="red" />
<circle r="100" cx="97673" cy="58694" fill="red" />
<circle r="100" cx="97628" cy="58694" fill="red" />
<circle r="100" cx="97628" cy="59810" fill="red" />
<circle r="100" cx="96976" cy="59810" fill="red" />
<circle r="100" cx="96976" cy="60944" fill="red" />
<circle r="100" cx="96485" cy="60944" fill="red" />
<circle r="100" cx="96485" cy="62061" fill="red" />
<circle r="100" cx="95974" cy="62061" fill="red" />
<circle r="100" cx="95974" cy="63248" fill="red" />
<circle r="100" cx="95748" cy="63248" fill="red" />
<circle r="100" cx="95748" cy="64662" fill="red" />
<circle r="100" cx="96214" cy="64662" fill="red" />
<circle r="100" cx="96214" cy="65764" fill="red" />
<circle r="100" cx="95642" cy="65764" fill="red" />
<circle r="100" cx="95642" cy="66755" fill="red" />
<circle r="100" cx="94801" cy="66755" fill="red" />
<circle r="100" cx="94801" cy="67896" fill="red" />
<circle r="100" cx="94390" cy="67896" fill="red" />
<circle r="100" cx="94390" cy="69110" fill="red" />
<circle r="100" cx="94141" cy="69110" fill="red" />
<circle r="100" cx="94141" cy="70168" fill="red" />
<circle r="100" cx="93526" cy="70168" fill="red" />
<circle r="100" cx="93526" cy="71446" fill="red" />
<circle r="100" cx="93369" cy="71446" fill="red" />
<circle r="100" cx="93369" cy="72267" fill="red" />
<circle r="100" cx="92298" cy="72267" fill="red" />
<circle r="100" cx="92298" cy="73226" fill="red" />
<circle r="100" cx="91531" cy="73226" fill="red" />
<circle r="100" cx="91531" cy="74355" fill="red" />
<circle r="100" cx="91073" cy="74355" fill="red" />
<circle r="100" cx="91073" cy="75528" fill="red" />
<circle r="100" cx="90666" cy="75528" fill="red" />
<circle r="100" cx="90666" cy="76633" fill="red" />
<circle r="100" cx="90131" cy="76633" fill="red" />
<circle r="100" cx="90131" cy="77691" fill="red" />
<circle r="100" cx="89515" cy="77691" fill="red" />
<circle r="100" cx="89515" cy="78771" fill="red" />
<circle r="100" cx="88919" cy="78771" fill="red" />
<circle r="100" cx="88919" cy="79538" fill="red" />
<circle r="100" cx="87908" cy="79538" fill="red" />
<circle r="100" cx="87908" cy="80478" fill="red" />
<circle r="100" cx="87135" cy="80478" fill="red" />
<circle r="100" cx="87135" cy="81550" fill="red" />
<circle r="100" cx="86514" cy="81550" fill="red" />
<circle r="100" cx="86514" cy="81966" fill="red" />
<circle r="100" cx="85154" cy="81966" fill="red" />
<circle r="100" cx="85154" cy="83369" fill="red" />
<circle r="100" cx="84879" cy="83369" fill="red" />
<circle r="100" cx="84879" cy="84065" fill="red" />
<circle r="100" cx="83848" cy="84065" fill="red" />
<circle r="100" cx="83848" cy="84550" fill="red" />
<circle r="100" cx="82633" cy="84550" fill="red" />
<circle r="100" cx="82633" cy="85553" fill="red" />
<circle r="100" cx="81914" cy="85553" fill="red" />
<circle r="100" cx="81914" cy="86608" fill="red" />
<circle r="100" cx="81224" cy="86608" fill="red" />
<circle r="100" cx="81224" cy="87400" fill="red" />
<circle r="100" cx="80297" cy="87400" fill="red" />
<circle r="100" cx="80297" cy="87882" fill="red" />
<circle r="100" cx="79129" cy="87882" fill="red" />
<circle r="100" cx="79129" cy="89069" fill="red" />
<circle r="100" cx="78496" cy="89069" fill="red" />
<circle r="100" cx="78496" cy="89747" fill="red" />
<circle r="100" cx="77476" cy="89747" fill="red" />
<circle r="100" cx="77476" cy="89792" fill="red" />
<circle r="100" cx="76042" cy="89792" fill="red" />
<circle r="100" cx="76042" cy="90412" fill="red" />
<circle r="100" cx="75009" cy="90412" fill="red" />
<circle r="100" cx="75009" cy="91317" fill="red" />
<circle r="100" cx="74144" cy="91317" fill="red" />
<circle r="100" cx="74144" cy="91746" fill="red" />
<circle r="100" cx="72996" cy="91746" fill="red" />
<circle r="100" cx="72996" cy="92544" fill="red" />
<circle r="100" cx="72050" cy="92544" fill="red" />
<circle r="100" cx="72050" cy="93038" fill="red" />
<circle r="100" cx="70940" cy="93038" fill="red" />
<circle r="100" cx="70940" cy="93570" fill="red" />
<circle r="100" cx="69850" cy="93570" fill="red" />
<circle r="100" cx="69850" cy="93848" fill="red" />
<circle r="100" cx="68650" cy="93848" fill="red" />
<circle r="100" cx="68650" cy="94995" fill="red" />
<circle r="100" cx="67806" cy="94995" fill="red" />
<circle r="100" cx="67806" cy="95319" fill="red" />
<circle r="100" cx="66619" cy="95319" fill="red" />
<circle r="100" cx="66619" cy="95177" fill="red" />
<circle r="100" cx="65280" cy="95177" fill="red" />
<circle r="100" cx="65280" cy="95556" fill="red" />
<circle r="100" cx="64133" cy="95556" fill="red" />
<circle r="100" cx="64133" cy="96445" fill="red" />
<circle r="100" cx="63128" cy="96445" fill="red" />
<circle r="100" cx="63128" cy="96494" fill="red" />
<circle r="100" cx="61879" cy="96494" fill="red" />
<circle r="100" cx="61879" cy="96939" fill="red" />
<circle r="100" cx="60734" cy="96939" fill="red" />
<circle r="100" cx="60734" cy="97073" fill="red" />
<circle r="100" cx="59516" cy="97073" fill="red" />
<circle r="100" cx="59516" cy="97437" fill="red" />
<circle r="100" cx="58345" cy="97437" fill="red" />
<circle r="100" cx="58345" cy="97884" fill="red" />
<circle r="100" cx="57178" cy="97884" fill="red" />
<circle r="100" cx="57178" cy="97310" fill="red" />
<circle r="100" cx="55871" cy="97310" fill="red" />
<circle r="100" cx="55871" cy="97628" fill="red" />
<circle r="100" cx="54689" cy="97628" fill="red" />
<circle r="100" cx="54689" cy="97534" fill="red" />
<circle r="100" cx="53466" cy="97534" fill="red" />
<circle r="100" cx="53466" cy="97639" fill="red" />
<circle r="100" cx="52263" cy="97639" fill="red" />
<circle r="100" cx="52263" cy="98179" fill="red" />
<circle r="100" cx="51066" cy="98179" fill="red" />
<circle r="100" cx="51066" cy="98009" fill="red" />
<circle r="100" cx="49846" cy="98009" fill="red" />
<circle r="100" cx="49846" cy="97587" fill="red" />
<circle r="100" cx="48641" cy="97587" fill="red" />
<circle r="100" cx="48641" cy="97442" fill="red" />
<circle r="100" cx="47441" cy="97442" fill="red" />
<circle r="100" cx="47441" cy="97554" fill="red" />
<circle r="100" cx="46225" cy="97554" fill="red" />
<circle r="100" cx="46225" cy="97865" fill="red" />
<circle r="100" cx="44977" cy="97865" fill="red" />
<circle r="100" cx="44977" cy="97399" fill="red" />
<circle r="100" cx="43808" cy="97399" fill="red" />
<circle r="100" cx="43808" cy="97907" fill="red" />
<circle r="100" cx="42503" cy="97907" fill="red" />
<circle r="100" cx="42503" cy="96814" fill="red" />
<circle r="100" cx="41454" cy="96814" fill="red" />
<circle r="100" cx="41454" cy="97405" fill="red" />
<circle r="100" cx="40099" cy="97405" fill="red" />
<circle r="100" cx="40099" cy="96388" fill="red" />
<circle r="100" cx="39078" cy="96388" fill="red" />
<circle r="100" cx="39078" cy="96382" fill="red" />
<circle r="100" cx="37832" cy="96382" fill="red" />
<circle r="100" cx="37832" cy="96415" fill="red" />
<circle r="100" cx="36557" cy="96415" fill="red" />
<circle r="100" cx="36557" cy="95283" fill="red" />
<circle r="100" cx="35632" cy="95283" fill="red" />
<circle r="100" cx="35632" cy="95832" fill="red" />
<circle r="100" cx="34169" cy="95832" fill="red" />
<circle r="100" cx="34169" cy="94609" fill="red" />
<circle r="100" cx="33315" cy="94609" fill="red" />
<circle r="100" cx="33315" cy="94140" fill="red" />
<circle r="100" cx="32203" cy="94140" fill="red" />
<circle r="100" cx="32203" cy="93620" fill="red" />
<circle r="100" cx="31115" cy="93620" fill="red" />
<circle r="100" cx="31115" cy="93612" fill="red" />
<circle r="100" cx="29791" cy="93612" fill="red" />
<circle r="100" cx="29791" cy="92816" fill="red" />
<circle r="100" cx="28827" cy="92816" fill="red" />
<circle r="100" cx="28827" cy="92854" fill="red" />
<circle r="100" cx="27439" cy="92854" fill="red" />
<circle r="100" cx="27439" cy="92120" fill="red" />
<circle r="100" cx="26444" cy="92120" fill="red" />
<circle r="100" cx="26444" cy="91350" fill="red" />
<circle r="100" cx="25479" cy="91350" fill="red" />
<circle r="100" cx="25479" cy="91029" fill="red" />
<circle r="100" cx="24243" cy="91029" fill="red" />
<circle r="100" cx="24243" cy="90150" fill="red" />
<circle r="100" cx="23354" cy="90150" fill="red" />
<circle r="100" cx="23354" cy="88965" fill="red" />
<circle r="100" cx="22693" cy="88965" fill="red" />
<circle r="100" cx="22693" cy="88616" fill="red" />
<circle r="100" cx="21452" cy="88616" fill="red" />
<circle r="100" cx="21452" cy="87622" fill="red" />
<circle r="100" cx="20684" cy="87622" fill="red" />
<circle r="100" cx="20684" cy="87088" fill="red" />
<circle r="100" cx="19560" cy="87088" fill="red" />
<circle r="100" cx="19560" cy="86108" fill="red" />
<circle r="100" cx="18800" cy="86108" fill="red" />
<circle r="100" cx="18800" cy="85166" fill="red" />
<circle r="100" cx="18022" cy="85166" fill="red" />
<circle r="100" cx="18022" cy="84526" fill="red" />
<circle r="100" cx="16968" cy="84526" fill="red" />
<circle r="100" cx="16968" cy="83798" fill="red" />
<circle r="100" cx="15983" cy="83798" fill="red" />
<circle r="100" cx="15983" cy="83275" fill="red" />
<circle r="100" cx="14768" cy="83275" fill="red" />
<circle r="100" cx="14768" cy="82119" fill="red" />
<circle r="100" cx="14219" cy="82119" fill="red" />
<circle r="100" cx="14219" cy="81229" fill="red" />
<circle r="100" cx="13385" cy="81229" fill="red" />
<circle r="100" cx="13385" cy="80353" fill="red" />
<circle r="100" cx="12529" cy="80353" fill="red" />
<circle r="100" cx="12529" cy="78959" fill="red" />
<circle r="100" cx="12338" cy="78959" fill="red" />
<circle r="100" cx="12338" cy="78258" fill="red" />
<circle r="100" cx="11257" cy="78258" fill="red" />
<circle r="100" cx="11257" cy="77432" fill="red" />
<circle r="100" cx="10316" cy="77432" fill="red" />
<circle r="100" cx="10316" cy="76306" fill="red" />
<circle r="100" cx="9804" cy="76306" fill="red" />
<circle r="100" cx="9804" cy="75257" fill="red" />
<circle r="100" cx="9186" cy="75257" fill="red" />
<circle r="100" cx="9186" cy="74070" fill="red" />
<circle r="100" cx="8808" cy="74070" fill="red" />
<circle r="100" cx="8808" cy="73346" fill="red" />
<circle r="100" cx="7617" cy="73346" fill="red" />
<circle r="100" cx="7617" cy="72112" fill="red" />
<circle r="100" cx="7336" cy="72112" fill="red" />
<circle r="100" cx="7336" cy="71130" fill="red" />
<circle r="100" cx="6571" cy="71130" fill="red" />
<circle r="100" cx="6571" cy="69839" fill="red" />
<circle r="100" cx="6453" cy="69839" fill="red" />
<circle r="100" cx="6453" cy="68884" fill="red" />
<circle r="100" cx="5601" cy="68884" fill="red" />
<circle r="100" cx="5601" cy="67730" fill="red" />
<circle r="100" cx="5195" cy="67730" fill="red" />
<circle r="100" cx="5195" cy="66371" fill="red" />
<circle r="100" cx="5358" cy="66371" fill="red" />
<circle r="100" cx="5358" cy="65433" fill="red" />
<circle r="100" cx="4369" cy="65433" fill="red" />
<circle r="100" cx="4369" cy="64085" fill="red" />
<circle r="100" cx="4595" cy="64085" fill="red" />
<circle r="100" cx="4595" cy="62951" fill="red" />
<circle r="100" cx="4183" cy="62951" fill="red" />
<circle r="100" cx="4183" cy="61942" fill="red" />
<circle r="100" cx="3257" cy="61942" fill="red" />
<circle r="100" cx="3257" cy="60761" fill="red" />
<circle r="100" cx="2939" cy="60761" fill="red" />
<circle r="100" cx="2939" cy="59474" fill="red" />
<circle r="100" cx="3133" cy="59474" fill="red" />
<circle r="100" cx="3133" cy="58235" fill="red" />
<circle r="100" cx="3186" cy="58235" fill="red" />
<circle r="100" cx="3186" cy="57057" fill="red" />
<circle r="100" cx="2924" cy="57057" fill="red" />
<circle r="100" cx="2924" cy="55964" fill="red" />
<circle r="100" cx="1943" cy="55964" fill="red" />
<circle r="100" cx="1943" cy="54727" fill="red" />
<circle r="100" cx="1983" cy="54727" fill="red" />
<circle r="100" cx="1983" cy="53526" fill="red" />
<circle r="100" cx="1643" cy="53526" fill="red" />
<circle r="100" cx="1643" cy="52258" fill="red" />
<circle r="100" cx="2454" cy="52258" fill="red" />
<circle r="100" cx="2454" cy="51063" fill="red" />
<circle r="100" cx="1936" cy="51063" fill="red" />
<circle r="100" cx="1936" cy="50143" fill="red" />
<circle r="100" cx="94800" cy="50143" fill="red" />
<circle r="100" cx="94800" cy="48628" fill="red" />
<circle r="100" cx="1967" cy="48628" fill="red" />
<circle r="100" cx="1967" cy="47420" fill="red" />
<circle r="100" cx="2174" cy="47420" fill="red" />
<circle r="100" cx="2174" cy="46235" fill="red" />
<circle r="100" cx="2572" cy="46235" fill="red" />
<circle r="100" cx="2572" cy="45009" fill="red" />
<circle r="100" cx="2439" cy="45009" fill="red" />
<circle r="100" cx="2439" cy="43789" fill="red" />
<circle r="100" cx="2455" cy="43789" fill="red" />
<circle r="100" cx="2455" cy="42617" fill="red" />
<circle r="100" cx="2817" cy="42617" fill="red" />
<circle r="100" cx="2817" cy="41320" fill="red" />
<circle r="100" cx="2452" cy="41320" fill="red" />
<circle r="100" cx="2452" cy="40171" fill="red" />
<circle r="100" cx="2941" cy="40171" fill="red" />
<circle r="100" cx="2941" cy="39071" fill="red" />
<circle r="100" cx="3579" cy="39071" fill="red" />
<circle r="100" cx="3579" cy="37926" fill="red" />
<circle r="100" cx="3978" cy="37926" fill="red" />
<circle r="100" cx="3978" cy="36593" fill="red" />
<circle r="100" cx="3706" cy="36593" fill="red" />
<circle r="100" cx="3706" cy="35458" fill="red" />
<circle r="100" cx="4168" cy="35458" fill="red" />
<circle r="100" cx="4168" cy="34184" fill="red" />
<circle r="100" cx="4208" cy="34184" fill="red" />
<circle r="100" cx="4208" cy="33283" fill="red" />
<circle r="100" cx="5303" cy="33283" fill="red" />
<circle r="100" cx="5303" cy="32050" fill="red" />
<circle r="100" cx="5479" cy="32050" fill="red" />
<circle r="100" cx="5479" cy="31124" fill="red" />
<circle r="100" cx="6400" cy="31124" fill="red" />
<circle r="100" cx="6400" cy="29843" fill="red" />
<circle r="100" cx="6498" cy="29843" fill="red" />
<circle r="100" cx="6498" cy="28596" fill="red" />
<circle r="100" cx="6717" cy="28596" fill="red" />
<circle r="100" cx="6717" cy="27511" fill="red" />
<circle r="100" cx="7282" cy="27511" fill="red" />
<circle r="100" cx="7282" cy="26340" fill="red" />
<circle r="100" cx="7694" cy="26340" fill="red" />
<circle r="100" cx="7694" cy="25288" fill="red" />
<circle r="100" cx="8327" cy="25288" fill="red" />
<circle r="100" cx="8327" cy="24719" fill="red" />
<circle r="100" cx="9728" cy="24719" fill="red" />
<circle r="100" cx="9728" cy="23535" fill="red" />
<circle r="100" cx="10122" cy="23535" fill="red" />
<circle r="100" cx="10122" cy="22481" fill="red" />
<circle r="100" cx="10731" cy="22481" fill="red" />
<circle r="100" cx="10731" cy="21219" fill="red" />
<circle r="100" cx="11068" cy="21219" fill="red" />
<circle r="100" cx="11068" cy="20260" fill="red" />
<circle r="100" cx="11832" cy="20260" fill="red" />
<circle r="100" cx="11832" cy="19402" fill="red" />
<circle r="100" cx="12719" cy="19402" fill="red" />
<circle r="100" cx="12719" cy="18681" fill="red" />
<circle r="100" cx="13753" cy="18681" fill="red" />
<circle r="100" cx="13753" cy="17399" fill="red" />
<circle r="100" cx="14147" cy="17399" fill="red" />
<circle r="100" cx="14147" cy="16842" fill="red" />
<circle r="100" cx="15341" cy="16842" fill="red" />
<circle r="100" cx="15341" cy="15813" fill="red" />
<circle r="100" cx="16031" cy="15813" fill="red" />
<circle r="100" cx="16031" cy="15227" fill="red" />
<circle r="100" cx="17157" cy="15227" fill="red" />
<circle r="100" cx="17157" cy="14012" fill="red" />
<circle r="100" cx="17695" cy="14012" fill="red" />
<circle r="100" cx="17695" cy="13399" fill="red" />
<circle r="100" cx="18782" cy="13399" fill="red" />
<circle r="100" cx="18782" cy="12438" fill="red" />
<circle r="100" cx="19572" cy="12438" fill="red" />
<circle r="100" cx="19572" cy="12015" fill="red" />
<circle r="100" cx="20791" cy="12015" fill="red" />
<circle r="100" cx="20791" cy="11392" fill="red" />
<circle r="100" cx="21840" cy="11392" fill="red" />
<circle r="100" cx="21840" cy="10247" fill="red" />
<circle r="100" cx="22519" cy="10247" fill="red" />
<circle r="100" cx="22519" cy="10010" fill="red" />
<circle r="100" cx="23828" cy="10010" fill="red" />
<circle r="100" cx="23828" cy="9084" fill="red" />
<circle r="100" cx="24678" cy="9084" fill="red" />
<circle r="100" cx="24678" cy="8491" fill="red" />
<circle r="100" cx="25744" cy="8491" fill="red" />
<circle r="100" cx="25744" cy="7863" fill="red" />
<circle r="100" cx="26788" cy="7863" fill="red" />
<circle r="100" cx="26788" cy="6987" fill="red" />
<circle r="100" cx="27707" cy="6987" fill="red" />
<circle r="100" cx="27707" cy="6573" fill="red" />
<circle r="100" cx="28870" cy="6573" fill="red" />
<circle r="100" cx="28870" cy="5960" fill="red" />
<circle r="100" cx="29935" cy="5960" fill="red" />
<circle r="100" cx="29935" cy="5408" fill="red" />
<circle r="100" cx="31033" cy="5408" fill="red" />
<circle r="100" cx="31033" cy="4964" fill="red" />
<circle r="100" cx="32177" cy="4964" fill="red" />
<circle r="100" cx="32177" cy="4548" fill="red" />
<circle r="100" cx="33332" cy="4548" fill="red" />
<circle r="100" cx="33332" cy="4435" fill="red" />
<circle r="100" cx="34588" cy="4435" fill="red" />
<circle r="100" cx="34588" cy="4188" fill="red" />
<circle r="100" cx="35787" cy="4188" fill="red" />
<circle r="100" cx="35787" cy="4063" fill="red" />
<circle r="100" cx="37014" cy="4063" fill="red" />
<circle r="100" cx="37014" cy="3490" fill="red" />
<circle r="100" cx="38116" cy="3490" fill="red" />
<circle r="100" cx="38116" cy="3175" fill="red" />
<circle r="100" cx="39292" cy="3175" fill="red" />
<circle r="100" cx="39292" cy="3040" fill="red" />
<circle r="100" cx="40506" cy="3040" fill="red" />
<circle r="100" cx="40506" cy="2347" fill="red" />
<circle r="100" cx="41616" cy="2347" fill="red" />
<circle r="100" cx="41616" cy="2950" fill="red" />
<circle r="100" cx="42946" cy="2950" fill="red" />
<circle r="100" cx="42946" cy="2088" fill="red" />
<circle r="100" cx="44053" cy="2088" fill="red" />
<circle r="100" cx="44053" cy="2542" fill="red" />
<circle r="100" cx="45327" cy="2542" fill="red" />
<circle r="100" cx="45327" cy="2293" fill="red" />
<circle r="100" cx="46520" cy="2293" fill="red" />
<circle r="100" cx="46520" cy="2372" fill="red" />
<circle r="100" cx="47737" cy="2372" fill="red" />
<circle r="100" cx="47737" cy="1604" fill="red" />
<circle r="100" cx="48928" cy="1604" fill="red" />
<circle r="100" cx="48928" cy="1823" fill="red" />
<circle r="100" cx="50154" cy="1823" fill="red" />
<circle r="100" cx="50154" cy="2178" fill="red" />
<circle r="100" cx="51365" cy="2178" fill="red" />
<circle r="100" cx="51365" cy="1738" fill="red" />
<circle r="100" cx="52602" cy="1738" fill="red" />
<circle r="100" cx="52602" cy="1788" fill="red" />
<circle r="100" cx="53826" cy="1788" fill="red" />
<circle r="100" cx="53826" cy="2273" fill="red" />
<circle r="100" cx="55007" cy="2273" fill="red" />
<circle r="100" cx="55007" cy="2068" fill="red" />
<circle r="100" cx="56260" cy="2068" fill="red" />
<circle r="100" cx="56260" cy="2614" fill="red" />
<circle r="100" cx="57414" cy="2614" fill="red" />
<circle r="100" cx="57414" cy="3231" fill="red" />
<circle r="100" cx="58537" cy="3231" fill="red" />
<circle r="100" cx="58537" cy="2920" fill="red" />
<circle r="100" cx="59832" cy="2920" fill="red" />
<circle r="100" cx="59832" cy="3681" fill="red" />
<circle r="100" cx="60904" cy="3681" fill="red" />
<circle r="100" cx="60904" cy="3946" fill="red" />
<circle r="100" cx="62081" cy="3946" fill="red" />
<circle r="100" cx="62081" cy="4131" fill="red" />
<circle r="100" cx="63283" cy="4131" fill="red" />
<circle r="100" cx="63283" cy="4652" fill="red" />
<circle r="100" cx="64387" cy="4652" fill="red" />
<circle r="100" cx="64387" cy="4844" fill="red" />
<circle r="100" cx="65596" cy="4844" fill="red" />
<circle r="100" cx="65596" cy="5340" fill="red" />
<circle r="100" cx="66703" cy="5340" fill="red" />
<circle r="100" cx="66703" cy="5487" fill="red" />
<circle r="100" cx="67945" cy="5487" fill="red" />
<circle r="100" cx="67945" cy="5728" fill="red" />
<circle r="100" cx="69166" cy="5728" fill="red" />
<circle r="100" cx="69166" cy="6794" fill="red" />
<circle r="100" cx="70019" cy="6794" fill="red" />
<circle r="100" cx="70019" cy="7116" fill="red" />
<circle r="100" cx="71206" cy="7116" fill="red" />
<circle r="100" cx="71206" cy="7226" fill="red" />
<circle r="100" cx="72517" cy="7226" fill="red" />
<circle r="100" cx="72517" cy="7707" fill="red" />
<circle r="100" cx="73651" cy="7707" fill="red" />
<circle r="100" cx="73651" cy="8446" fill="red" />
<circle r="100" cx="74640" cy="8446" fill="red" />
<circle r="100" cx="74640" cy="9118" fill="red" />
<circle r="100" cx="75664" cy="9118" fill="red" />
<circle r="100" cx="75664" cy="10000" fill="red" />
<circle r="100" cx="76545" cy="10000" fill="red" />
<circle r="100" cx="76545" cy="10362" fill="red" />
<circle r="100" cx="77777" cy="10362" fill="red" />
<circle r="100" cx="77777" cy="11195" fill="red" />
<circle r="100" cx="78686" cy="11195" fill="red" />
<circle r="100" cx="78686" cy="12344" fill="red" />
<circle r="100" cx="79340" cy="12344" fill="red" />
<circle r="100" cx="79340" cy="12818" fill="red" />
<circle r="100" cx="80515" cy="12818" fill="red" />
<circle r="100" cx="80515" cy="13383" fill="red" />
<circle r="100" cx="81638" cy="13383" fill="red" />
<circle r="100" cx="81638" cy="14591" fill="red" />
<circle r="100" cx="82196" cy="14591" fill="red" />
<circle r="100" cx="82196" cy="14977" fill="red" />
<circle r="100" cx="83505" cy="14977" fill="red" />
<circle r="100" cx="83505" cy="16181" fill="red" />
<circle r="100" cx="84036" cy="16181" fill="red" />
<circle r="100" cx="84036" cy="16826" fill="red" />
<circle r="100" cx="85122" cy="16826" fill="red" />
<circle r="100" cx="85122" cy="17980" fill="red" />
<circle r="100" cx="85670" cy="17980" fill="red" />
<circle r="100" cx="85670" cy="19070" fill="red" />
<circle r="100" cx="86263" cy="19070" fill="red" />
<circle r="100" cx="86263" cy="19578" fill="red" />
<circle r="100" cx="87553" cy="19578" fill="red" />
<circle r="100" cx="87553" cy="20767" fill="red" />
<circle r="100" cx="88016" cy="20767" fill="red" />
<circle r="100" cx="88016" cy="21839" fill="red" />
<circle r="100" cx="88608" cy="21839" fill="red" />
<circle r="100" cx="88608" cy="22815" fill="red" />
<circle r="100" cx="89324" cy="22815" fill="red" />
<circle r="100" cx="89324" cy="23773" fill="red" />
<circle r="100" cx="90072" cy="23773" fill="red" />
<circle r="100" cx="90072" cy="24865" fill="red" />
<circle r="100" cx="90613" cy="24865" fill="red" />
<circle r="100" cx="90613" cy="25784" fill="red" />
<circle r="100" cx="91439" cy="25784" fill="red" />
<circle r="100" cx="91439" cy="26819" fill="red" />
<circle r="100" cx="92080" cy="26819" fill="red" />
<circle r="100" cx="92080" cy="27995" fill="red" />
<circle r="100" cx="92456" cy="27995" fill="red" />
<circle r="100" cx="92456" cy="28855" fill="red" />
<circle r="100" cx="93456" cy="28855" fill="red" />
<circle r="100" cx="93456" cy="30075" fill="red" />
<circle r="100" cx="93733" cy="30075" fill="red" />
<circle r="100" cx="93733" cy="31143" fill="red" />
<circle r="100" cx="94332" cy="31143" fill="red" />
<circle r="100" cx="94332" cy="32193" fill="red" />
<circle r="100" cx="94995" cy="32193" fill="red" />
<circle r="100" cx="94995" cy="33560" fill="red" />
<circle r="100" cx="94829" cy="33560" fill="red" />
<circle r="100" cx="94829" cy="34660" fill="red" />
<circle r="100" cx="95352" cy="34660" fill="red" />
<circle r="100" cx="95352" cy="35816" fill="red" />
<circle r="100" cx="95717" cy="35816" fill="red" />
<circle r="100" cx="95717" cy="36836" fill="red" />
<circle r="100" cx="96569" cy="36836" fill="red" />
<circle r="100" cx="96569" cy="38156" fill="red" />
<circle r="100" cx="96354" cy="38156" fill="red" />
<circle r="100" cx="96354" cy="39394" fill="red" />
<circle r="100" cx="96376" cy="39394" fill="red" />
<circle r="100" cx="96376" cy="40441" fill="red" />
<circle r="100" cx="97281" cy="40441" fill="red" />
<circle r="100" cx="97281" cy="41617" fill="red" />
<circle r="100" cx="97650" cy="41617" fill="red" />
<circle r="100" cx="97650" cy="42900" fill="red" />
<circle r="100" cx="97353" cy="42900" fill="red" />
<circle r="100" cx="97353" cy="44047" fill="red" />
<circle r="100" cx="97963" cy="44047" fill="red" />
<circle r="100" cx="97963" cy="45312" fill="red" />
<circle r="100" cx="97609" cy="45312" fill="red" />
<circle r="100" cx="97609" cy="46476" fill="red" />
<circle r="100" cx="98312" cy="46476" fill="red" />
<circle r="100" cx="98312" cy="47743" fill="red" />
<circle r="100" cx="97494" cy="47743" fill="red" />
<circle r="100" cx="97494" cy="48929" fill="red" />
<circle r="100" cx="98347" cy="48929" fill="red" />
<circle r="100" cx="98347" cy="50153" fill="red" />
    <rect width="89199" height="17587" x="5601" y="50143" fill="blue" opacity="0.5" />
</svg>